Input #0, lavfi, from 'rgbtestsrc=duration=60:size=1920x1080:rate=30':
  Duration: N/A, start: 0.000000, bitrate: N/A
  Stream #0:0: Video: rawvideo (RGBA / 0x41424752), rgba, 1920x1080 [SAR 1:1 DAR 16:9], 30 tbr, 30 tbn, 30 tbc
Stream mapping:
  Stream #0:0 -> #0:0 (rawvideo (native) -> h264 (h264_nvenc))
Press [q] to stop, [?] for help
Output #0, mp4, to './test_results/temp_tests_gpu/test_test_50_42/output.mp4':
  Metadata:
    encoder         : Lavf58.76.100
  Stream #0:0: Video: h264 (Main) (avc1 / 0x31637661), rgb0(pc, gbr/unknown/unknown, progressive), 1280x720 [SAR 1:1 DAR 16:9], q=2-31, 30 fps, 15360 tbn
    Metadata:
      encoder         : Lavc58.134.100 h264_nvenc
    Side data:
      cpb: bitrate max/min/avg: 3000000/0/0 buffer size: 4000000 vbv_delay: N/A
frame=    1 fps=0.0 q=0.0 size=       0kB time=00:00:00.00 bitrate=N/A speed=N/A    frame=    2 fps=0.3 q=0.0 size=       0kB time=00:00:00.00 bitrate=N/A speed=   0x    frame=   16 fps=2.1 q=23.0 size=       0kB time=00:00:00.43 bitrate=   0.9kbits/s speed=0.0562x    frame=   28 fps=3.4 q=23.0 size=       0kB time=00:00:00.83 bitrate=   0.5kbits/s speed=0.101x    frame=   40 fps=4.6 q=23.0 size=       0kB time=00:00:01.23 bitrate=   0.3kbits/s speed=0.141x    frame=   54 fps=5.8 q=23.0 size=       0kB time=00:00:01.70 bitrate=   0.2kbits/s speed=0.183x    frame=   68 fps=6.9 q=23.0 size=       0kB time=00:00:02.16 bitrate=   0.2kbits/s speed=0.221x    frame=   82 fps=8.0 q=23.0 size=       0kB time=00:00:02.63 bitrate=   0.1kbits/s speed=0.256x    frame=   97 fps=8.9 q=23.0 size=       0kB time=00:00:03.13 bitrate=   0.1kbits/s speed=0.289x    frame=  112 fps=9.8 q=23.0 size=       0kB time=00:00:03.63 bitrate=   0.1kbits/s speed=0.32x    frame=  127 fps= 11 q=23.0 size=       0kB time=00:00:04.13 bitrate=   0.1kbits/s speed=0.348x    frame=  142 fps= 11 q=23.0 size=       0kB time=00:00:04.63 bitrate=   0.1kbits/s speed=0.374x    frame=  158 fps= 12 q=23.0 size=       0kB time=00:00:05.16 bitrate=   0.1kbits/s speed= 0.4x    frame=  175 fps= 13 q=23.0 size=       0kB time=00:00:05.73 bitrate=   0.1kbits/s speed=0.427x    frame=  193 fps= 14 q=23.0 size=       0kB time=00:00:06.33 bitrate=   0.1kbits/s speed=0.454x    frame=  211 fps= 15 q=23.0 size=       0kB time=00:00:06.93 bitrate=   0.1kbits/s speed=0.479x    frame=  230 fps= 15 q=23.0 size=       0kB time=00:00:07.56 bitrate=   0.1kbits/s speed=0.506x    frame=  249 fps= 16 q=23.0 size=       0kB time=00:00:08.20 bitrate=   0.0kbits/s speed=0.53x    frame=  268 fps= 17 q=23.0 size=       0kB time=00:00:08.83 bitrate=   0.0kbits/s speed=0.553x    frame=  288 fps= 17 q=23.0 size=       0kB time=00:00:09.50 bitrate=   0.0kbits/s speed=0.576x    frame=  307 fps= 18 q=23.0 size=       0kB time=00:00:10.13 bitrate=   0.0kbits/s speed=0.596x    frame=  327 fps= 19 q=23.0 size=       0kB time=00:00:10.80 bitrate=   0.0kbits/s speed=0.616x    frame=  347 fps= 19 q=23.0 size=       0kB time=00:00:11.46 bitrate=   0.0kbits/s speed=0.636x    frame=  366 fps= 20 q=23.0 size=       0kB time=00:00:12.10 bitrate=   0.0kbits/s speed=0.652x    frame=  385 fps= 20 q=23.0 size=       0kB time=00:00:12.73 bitrate=   0.0kbits/s speed=0.668x    frame=  404 fps= 21 q=23.0 size=       0kB time=00:00:13.36 bitrate=   0.0kbits/s speed=0.683x    frame=  424 fps= 21 q=23.0 size=       0kB time=00:00:14.03 bitrate=   0.0kbits/s speed=0.698x    frame=  442 fps= 21 q=23.0 size=       0kB time=00:00:14.63 bitrate=   0.0kbits/s speed=0.709x    frame=  462 fps= 22 q=23.0 size=       0kB time=00:00:15.30 bitrate=   0.0kbits/s speed=0.723x    frame=  482 fps= 22 q=23.0 size=       0kB time=00:00:15.96 bitrate=   0.0kbits/s speed=0.737x    frame=  502 fps= 23 q=23.0 size=       0kB time=00:00:16.63 bitrate=   0.0kbits/s speed=0.749x    frame=  521 fps= 23 q=23.0 size=       0kB time=00:00:17.26 bitrate=   0.0kbits/s speed=0.76x    frame=  540 fps= 23 q=23.0 size=       0kB time=00:00:17.90 bitrate=   0.0kbits/s speed=0.771x    frame=  559 fps= 24 q=23.0 size=       0kB time=00:00:18.53 bitrate=   0.0kbits/s speed=0.781x    frame=  578 fps= 24 q=23.0 size=       0kB time=00:00:19.16 bitrate=   0.0kbits/s speed=0.791x    frame=  597 fps= 24 q=23.0 size=       0kB time=00:00:19.80 bitrate=   0.0kbits/s speed= 0.8x    frame=  615 fps= 24 q=23.0 size=       0kB time=00:00:20.40 bitrate=   0.0kbits/s speed=0.808x    frame=  633 fps= 25 q=23.0 size=       0kB time=00:00:21.00 bitrate=   0.0kbits/s speed=0.815x    frame=  652 fps= 25 q=23.0 size=       0kB time=00:00:21.63 bitrate=   0.0kbits/s speed=0.823x    frame=  672 fps= 25 q=23.0 size=       0kB time=00:00:22.30 bitrate=   0.0kbits/s speed=0.832x    frame=  691 fps= 25 q=23.0 size=       0kB time=00:00:22.93 bitrate=   0.0kbits/s speed=0.839x    frame=  710 fps= 26 q=23.0 size=       0kB time=00:00:23.56 bitrate=   0.0kbits/s speed=0.847x    frame=  730 fps= 26 q=23.0 size=       0kB time=00:00:24.23 bitrate=   0.0kbits/s speed=0.855x    frame=  749 fps= 26 q=23.0 size=       0kB time=00:00:24.86 bitrate=   0.0kbits/s speed=0.862x    frame=  769 fps= 26 q=23.0 size=       0kB time=00:00:25.53 bitrate=   0.0kbits/s speed=0.869x    frame=  789 fps= 26 q=23.0 size=       0kB time=00:00:26.20 bitrate=   0.0kbits/s speed=0.876x    frame=  809 fps= 27 q=23.0 size=       0kB time=00:00:26.86 bitrate=   0.0kbits/s speed=0.883x    frame=  828 fps= 27 q=23.0 size=       0kB time=00:00:27.50 bitrate=   0.0kbits/s speed=0.889x    frame=  847 fps= 27 q=23.0 size=       0kB time=00:00:28.13 bitrate=   0.0kbits/s speed=0.895x    frame=  866 fps= 27 q=23.0 size=       0kB time=00:00:28.76 bitrate=   0.0kbits/s speed=0.901x    frame=  885 fps= 27 q=23.0 size=       0kB time=00:00:29.40 bitrate=   0.0kbits/s speed=0.906x    frame=  904 fps= 27 q=23.0 size=       0kB time=00:00:30.03 bitrate=   0.0kbits/s speed=0.912x    frame=  923 fps= 28 q=23.0 size=       0kB time=00:00:30.66 bitrate=   0.0kbits/s speed=0.917x    frame=  942 fps= 28 q=23.0 size=       0kB time=00:00:31.30 bitrate=   0.0kbits/s speed=0.921x    frame=  960 fps= 28 q=23.0 size=       0kB time=00:00:31.90 bitrate=   0.0kbits/s speed=0.925x    frame=  979 fps= 28 q=23.0 size=       0kB time=00:00:32.53 bitrate=   0.0kbits/s speed=0.93x    frame=  997 fps= 28 q=23.0 size=       0kB time=00:00:33.13 bitrate=   0.0kbits/s speed=0.933x    frame= 1015 fps= 28 q=23.0 size=       0kB time=00:00:33.73 bitrate=   0.0kbits/s speed=0.937x    frame= 1033 fps= 28 q=23.0 size=       0kB time=00:00:34.33 bitrate=   0.0kbits/s speed=0.94x    frame= 1051 fps= 28 q=23.0 size=       0kB time=00:00:34.93 bitrate=   0.0kbits/s speed=0.943x    frame= 1069 fps= 28 q=23.0 size=       0kB time=00:00:35.53 bitrate=   0.0kbits/s speed=0.946x    frame= 1088 fps= 29 q=23.0 size=       0kB time=00:00:36.16 bitrate=   0.0kbits/s speed=0.95x    frame= 1105 fps= 29 q=23.0 size=       0kB time=00:00:36.73 bitrate=   0.0kbits/s speed=0.952x    frame= 1123 fps= 29 q=23.0 size=       0kB time=00:00:37.33 bitrate=   0.0kbits/s speed=0.955x    frame= 1142 fps= 29 q=23.0 size=       0kB time=00:00:37.96 bitrate=   0.0kbits/s speed=0.958x    frame= 1161 fps= 29 q=23.0 size=       0kB time=00:00:38.60 bitrate=   0.0kbits/s speed=0.961x    frame= 1180 fps= 29 q=23.0 size=       0kB time=00:00:39.23 bitrate=   0.0kbits/s speed=0.965x    frame= 1198 fps= 29 q=23.0 size=       0kB time=00:00:39.83 bitrate=   0.0kbits/s speed=0.967x    frame= 1217 fps= 29 q=23.0 size=       0kB time=00:00:40.46 bitrate=   0.0kbits/s speed=0.97x    frame= 1235 fps= 29 q=23.0 size=       0kB time=00:00:41.06 bitrate=   0.0kbits/s speed=0.973x    frame= 1253 fps= 29 q=23.0 size=       0kB time=00:00:41.66 bitrate=   0.0kbits/s speed=0.975x    frame= 1271 fps= 29 q=23.0 size=       0kB time=00:00:42.26 bitrate=   0.0kbits/s speed=0.978x    frame= 1290 fps= 29 q=23.0 size=       0kB time=00:00:42.90 bitrate=   0.0kbits/s speed=0.981x    frame= 1309 fps= 30 q=23.0 size=       0kB time=00:00:43.53 bitrate=   0.0kbits/s speed=0.984x    frame= 1328 fps= 30 q=23.0 size=       0kB time=00:00:44.16 bitrate=   0.0kbits/s speed=0.986x    frame= 1347 fps= 30 q=23.0 size=       0kB time=00:00:44.80 bitrate=   0.0kbits/s speed=0.989x    frame= 1366 fps= 30 q=23.0 size=       0kB time=00:00:45.43 bitrate=   0.0kbits/s speed=0.992x    frame= 1385 fps= 30 q=23.0 size=       0kB time=00:00:46.06 bitrate=   0.0kbits/s speed=0.995x    frame= 1404 fps= 30 q=23.0 size=       0kB time=00:00:46.70 bitrate=   0.0kbits/s speed=0.997x    frame= 1423 fps= 30 q=23.0 size=       0kB time=00:00:47.33 bitrate=   0.0kbits/s speed=   1x    frame= 1442 fps= 30 q=23.0 size=       0kB time=00:00:47.96 bitrate=   0.0kbits/s speed=   1x    frame= 1461 fps= 30 q=23.0 size=       0kB time=00:00:48.60 bitrate=   0.0kbits/s speed=   1x    frame= 1480 fps= 30 q=23.0 size=       0kB time=00:00:49.23 bitrate=   0.0kbits/s speed=1.01x    frame= 1499 fps= 30 q=23.0 size=       0kB time=00:00:49.86 bitrate=   0.0kbits/s speed=1.01x    frame= 1518 fps= 30 q=23.0 size=       0kB time=00:00:50.50 bitrate=   0.0kbits/s speed=1.01x    frame= 1537 fps= 30 q=23.0 size=       0kB time=00:00:51.13 bitrate=   0.0kbits/s speed=1.01x    frame= 1556 fps= 31 q=23.0 size=       0kB time=00:00:51.76 bitrate=   0.0kbits/s speed=1.02x    frame= 1575 fps= 31 q=23.0 size=       0kB time=00:00:52.40 bitrate=   0.0kbits/s speed=1.02x    frame= 1594 fps= 31 q=23.0 size=       0kB time=00:00:53.03 bitrate=   0.0kbits/s speed=1.02x    frame= 1613 fps= 31 q=23.0 size=       0kB time=00:00:53.66 bitrate=   0.0kbits/s speed=1.02x    frame= 1632 fps= 31 q=23.0 size=       0kB time=00:00:54.30 bitrate=   0.0kbits/s speed=1.03x    frame= 1651 fps= 31 q=23.0 size=       0kB time=00:00:54.93 bitrate=   0.0kbits/s speed=1.03x    frame= 1670 fps= 31 q=23.0 size=       0kB time=00:00:55.56 bitrate=   0.0kbits/s speed=1.03x    frame= 1689 fps= 31 q=23.0 size=       0kB time=00:00:56.20 bitrate=   0.0kbits/s speed=1.03x    frame= 1708 fps= 31 q=23.0 size=       0kB time=00:00:56.83 bitrate=   0.0kbits/s speed=1.03x    frame= 1727 fps= 31 q=23.0 size=       0kB time=00:00:57.46 bitrate=   0.0kbits/s speed=1.04x    frame= 1746 fps= 31 q=23.0 size=       0kB time=00:00:58.10 bitrate=   0.0kbits/s speed=1.04x    frame= 1765 fps= 31 q=23.0 size=       0kB time=00:00:58.73 bitrate=   0.0kbits/s speed=1.04x    frame= 1784 fps= 31 q=23.0 size=       0kB time=00:00:59.36 bitrate=   0.0kbits/s speed=1.04x    [mp4 @ 0x649b3ab6f6c0] Starting second pass: moving the moov atom to the beginning of the file
frame= 1800 fps= 31 q=23.0 Lsize=     159kB time=00:00:59.96 bitrate=  21.7kbits/s speed=1.04x    
video:151kB audio:0kB subtitle:0kB other streams:0kB global headers:0kB muxing overhead: 5.300566%
